# xmcd
#
# Track frame offsets:
#	150
#	23732
#	49005
#	68292
#	88452
#	111912
#	133615
#	158197
#	176057
#	195220
#	220472
#
# Disc length: 3174 seconds
#
# Revision: 0
# Processed by: cddbd v1.5.2PL0 Copyright (c) Steve Scherf et al.
# Submitted via: MusicWizard 7.1.1b
#
DISCID=940c640b
DTITLE=Susan Ashton - A Distant Call
DYEAR=1996
DGENRE=Country
TTITLE0=You Move Me
TTITLE1=Blind Side
TTITLE2=Body And Soul
TTITLE3=All Kinds Of People
TTITLE4=Crooked Man
TTITLE5=Spinning Like A Wheel
TTITLE6=Hundreds Of Tears
TTITLE7=Send A Message
TTITLE8=I Will Follow
TTITLE9=Lonely River
TTITLE10=Love Profound
EXTD=
EXTT0=
EXTT1=
EXTT2=
EXTT3=
EXTT4=
EXTT5=
EXTT6=
EXTT7=
EXTT8=
EXTT9=
EXTT10=
PLAYORDER=
